<svg width="331" height="173" viewBox="0 0 331 173" fill="none" xmlns="http://www.w3.org/2000/svg">
<path d="M31.86 30.9091H63.3145L84.9509 83.6364H86.0418L107.678 30.9091H139.133V124H114.405V70.1818H113.678L92.9509 123.273H78.0418L57.3145 69.8182H56.5873V124H31.86V30.9091ZM136.114 124V110L180.114 51.2727H136.295V30.9091H212.295V44.9091L168.295 103.636H212.114V124H136.114ZM233.447 124H206.174L236.901 30.9091H271.447L302.174 124H274.901L254.538 56.5455H253.81L233.447 124ZM228.356 87.2727H279.629V106.182H228.356V87.2727Z" fill="white"/>
<path d="M120.859 142.727H128.723L134.132 155.909H134.405L139.814 142.727H147.678V166H141.496V152.545H141.314L136.132 165.818H132.405L127.223 152.455H127.041V166H120.859V142.727ZM159.126 166.318C157.263 166.318 155.657 165.962 154.308 165.25C152.967 164.53 151.933 163.5 151.206 162.159C150.486 160.811 150.126 159.197 150.126 157.318C150.126 155.515 150.49 153.939 151.217 152.591C151.945 151.242 152.971 150.193 154.297 149.443C155.623 148.693 157.187 148.318 158.99 148.318C160.308 148.318 161.501 148.523 162.57 148.932C163.638 149.341 164.551 149.936 165.308 150.716C166.066 151.489 166.649 152.428 167.058 153.534C167.467 154.64 167.672 155.886 167.672 157.273V158.727H152.081V155.273H161.899C161.892 154.773 161.763 154.333 161.513 153.955C161.27 153.568 160.941 153.269 160.524 153.057C160.115 152.837 159.649 152.727 159.126 152.727C158.619 152.727 158.153 152.837 157.729 153.057C157.304 153.269 156.964 153.564 156.706 153.943C156.456 154.322 156.323 154.765 156.308 155.273V159C156.308 159.561 156.426 160.061 156.661 160.5C156.895 160.939 157.232 161.284 157.672 161.534C158.111 161.784 158.642 161.909 159.263 161.909C159.695 161.909 160.089 161.848 160.445 161.727C160.808 161.606 161.119 161.432 161.376 161.205C161.634 160.97 161.823 160.689 161.945 160.364H167.672C167.475 161.576 167.009 162.629 166.274 163.523C165.539 164.409 164.566 165.098 163.354 165.591C162.149 166.076 160.74 166.318 159.126 166.318ZM176.55 166.227C175.307 166.227 174.163 165.902 173.118 165.25C172.08 164.598 171.247 163.61 170.618 162.284C169.997 160.958 169.686 159.288 169.686 157.273C169.686 155.167 170.012 153.455 170.663 152.136C171.322 150.818 172.171 149.852 173.209 149.239C174.254 148.625 175.353 148.318 176.504 148.318C177.368 148.318 178.125 148.47 178.777 148.773C179.429 149.068 179.974 149.466 180.413 149.966C180.853 150.458 181.186 151 181.413 151.591H181.504V142.727H187.777V166H181.55V163.136H181.413C181.171 163.727 180.822 164.258 180.368 164.727C179.921 165.189 179.375 165.557 178.732 165.83C178.095 166.095 177.368 166.227 176.55 166.227ZM178.868 161.409C179.444 161.409 179.936 161.242 180.345 160.909C180.762 160.568 181.08 160.091 181.3 159.477C181.527 158.856 181.641 158.121 181.641 157.273C181.641 156.409 181.527 155.67 181.3 155.057C181.08 154.436 180.762 153.962 180.345 153.636C179.936 153.303 179.444 153.136 178.868 153.136C178.292 153.136 177.8 153.303 177.391 153.636C176.989 153.962 176.679 154.436 176.459 155.057C176.247 155.67 176.141 156.409 176.141 157.273C176.141 158.136 176.247 158.879 176.459 159.5C176.679 160.114 176.989 160.587 177.391 160.92C177.8 161.246 178.292 161.409 178.868 161.409ZM190.857 166V148.545H197.129V166H190.857ZM193.993 146.727C193.144 146.727 192.417 146.447 191.811 145.886C191.205 145.326 190.902 144.652 190.902 143.864C190.902 143.076 191.205 142.402 191.811 141.841C192.417 141.28 193.144 141 193.993 141C194.849 141 195.576 141.28 196.175 141.841C196.781 142.402 197.084 143.076 197.084 143.864C197.084 144.652 196.781 145.326 196.175 145.886C195.576 146.447 194.849 146.727 193.993 146.727ZM205.189 166.273C204.075 166.273 203.09 166.091 202.234 165.727C201.386 165.356 200.719 164.795 200.234 164.045C199.75 163.295 199.507 162.341 199.507 161.182C199.507 160.227 199.67 159.413 199.996 158.739C200.321 158.057 200.776 157.5 201.359 157.068C201.943 156.636 202.621 156.307 203.393 156.08C204.174 155.852 205.015 155.705 205.916 155.636C206.893 155.561 207.678 155.47 208.268 155.364C208.867 155.25 209.299 155.095 209.564 154.898C209.829 154.693 209.962 154.424 209.962 154.091V154.045C209.962 153.591 209.787 153.242 209.439 153C209.09 152.758 208.643 152.636 208.098 152.636C207.5 152.636 207.011 152.769 206.632 153.034C206.261 153.292 206.037 153.689 205.962 154.227H200.189C200.265 153.167 200.602 152.189 201.2 151.295C201.806 150.394 202.689 149.674 203.848 149.136C205.007 148.591 206.454 148.318 208.189 148.318C209.439 148.318 210.56 148.466 211.553 148.761C212.545 149.049 213.39 149.455 214.087 149.977C214.784 150.492 215.314 151.098 215.678 151.795C216.049 152.485 216.234 153.235 216.234 154.045V166H210.371V163.545H210.234C209.886 164.197 209.462 164.723 208.962 165.125C208.469 165.527 207.905 165.818 207.268 166C206.64 166.182 205.946 166.273 205.189 166.273ZM207.234 162.318C207.712 162.318 208.159 162.22 208.575 162.023C209 161.826 209.344 161.542 209.609 161.17C209.875 160.799 210.007 160.348 210.007 159.818V158.364C209.84 158.432 209.662 158.496 209.473 158.557C209.291 158.617 209.094 158.674 208.882 158.727C208.678 158.78 208.458 158.83 208.223 158.875C207.996 158.92 207.757 158.962 207.507 159C207.022 159.076 206.625 159.201 206.314 159.375C206.011 159.542 205.784 159.75 205.632 160C205.488 160.242 205.416 160.515 205.416 160.818C205.416 161.303 205.587 161.674 205.928 161.932C206.268 162.189 206.704 162.318 207.234 162.318ZM222.641 166.364C221.762 166.364 221.008 166.057 220.379 165.443C219.758 164.822 219.451 164.068 219.459 163.182C219.451 162.318 219.758 161.58 220.379 160.966C221.008 160.352 221.762 160.045 222.641 160.045C223.474 160.045 224.209 160.352 224.845 160.966C225.489 161.58 225.815 162.318 225.822 163.182C225.815 163.773 225.66 164.311 225.357 164.795C225.061 165.273 224.675 165.655 224.197 165.943C223.72 166.223 223.201 166.364 222.641 166.364Z" fill="white"/>
<path d="M110.12 151.828C111.453 152.598 111.453 154.522 110.12 155.292L94.2799 164.437C92.9466 165.207 91.2799 164.245 91.2799 162.705V144.415C91.2799 142.875 92.9466 141.913 94.2799 142.683L110.12 151.828Z" fill="#79BCF9"/>
</svg>
